<svg width="800" height="800" viewBox="0 0 256 256" xmlns="http://www.w3.org/2000/svg" aria-labelledby="cubeTitle cubeDesc"><defs><linearGradient id="a" x1="0%" y1="0%" x2="100%" y2="100%"><stop offset="0%" stop-color="#6ee7b7"/><stop offset="100%" stop-color="#3b82f6"/></linearGradient></defs><title>Isometric cube icon</title><desc>A stylized cube with gradient fill and stroke — modified to address review feedback.</desc><path d="M233.434 68.903c-.037-.067-.065-.137-.103-.204l-.053-.083a20 20 0 0 0-7.473-7.369l-88-49.5a20.12 20.12 0 0 0-19.61 0l-88 49.5a20 20 0 0 0-7.5 7.417c-.022.04-.049.074-.07.114-.036.064-.061.13-.096.193A20 20 0 0 0 20 78.68v98.642a20.03 20.03 0 0 0 10.195 17.432l88 49.5a20 20 0 0 0 9.008 2.526c.234.016.465.04.702.042h.108c.313 0 .62-.023.927-.046a20 20 0 0 0 8.865-2.522l88-49.5A20.03 20.03 0 0 0 236 177.32V78.68a20 20 0 0 0-2.566-9.776M128 33.768l71.615 40.284-70.724 40.18-72.323-40.284ZM44 94.42l72.887 40.597-.708 80.566L44 174.982Zm96.182 120.96.706-80.361L212 94.619v80.363Z" fill="url(#a)" stroke="#0f172a" stroke-width="1.5" stroke-linejoin="round"/></svg>