<?xml version="1.0" encoding="UTF-8" standalone="no"?>
<svg
   version="1.1"
   width="550"
   height="544"
   id="svg83"
   sodipodi:docname="icon.svg"
   inkscape:export-filename="Menu-Icon-Exporter\icon.svg"
   inkscape:export-xdpi="97.058823"
   inkscape:export-ydpi="97.058823"
   xmlns:inkscape="http://www.inkscape.org/namespaces/inkscape"
   xmlns:sodipodi="http://sodipodi.sourceforge.net/DTD/sodipodi-0.dtd"
   xmlns="http://www.w3.org/2000/svg"
   xmlns:svg="http://www.w3.org/2000/svg">
  <defs
     id="defs83">
    <inkscape:path-effect
       effect="fillet_chamfer"
       id="path-effect87"
       is_visible="true"
       lpeversion="1"
       nodesatellites_param="F,0,0,1,0,10.304083,0,1 @ F,0,0,1,0,8.3716564,0,1 @ F,0,0,1,0,0,0,1 @ F,0,0,1,0,0,0,1 @ F,0,0,1,0,6.4576843,0,1 @ F,0,0,1,0,8.772848,0,1"
       radius="0"
       unit="px"
       method="auto"
       mode="F"
       chamfer_steps="1"
       flexible="false"
       use_knot_distance="true"
       apply_no_radius="true"
       apply_with_radius="true"
       only_selected="false"
       hide_knots="false" />
    <inkscape:path-effect
       effect="fillet_chamfer"
       id="path-effect86"
       is_visible="true"
       lpeversion="1"
       nodesatellites_param="F,0,0,1,0,4.0229526,0,1 @ F,0,0,1,0,0,0,1 @ F,0,0,1,0,3.8685915,0,1 @ F,0,0,1,0,2.8913886,0,1"
       radius="0"
       unit="px"
       method="auto"
       mode="F"
       chamfer_steps="1"
       flexible="false"
       use_knot_distance="true"
       apply_no_radius="true"
       apply_with_radius="true"
       only_selected="false"
       hide_knots="false" />
    <inkscape:path-effect
       effect="fillet_chamfer"
       id="path-effect85"
       is_visible="true"
       lpeversion="1"
       nodesatellites_param="F,0,0,1,0,4.2703084,0,1 @ F,0,0,1,0,5.0341275,0,1 @ F,0,0,1,0,5.3790289,0,1 @ F,0,0,1,0,4.8219659,0,1"
       radius="0"
       unit="px"
       method="auto"
       mode="F"
       chamfer_steps="1"
       flexible="false"
       use_knot_distance="true"
       apply_no_radius="true"
       apply_with_radius="true"
       only_selected="false"
       hide_knots="false" />
    <inkscape:path-effect
       effect="fillet_chamfer"
       id="path-effect83"
       is_visible="true"
       lpeversion="1"
       nodesatellites_param="F,0,0,1,0,4.1994335,0,1 @ F,0,0,1,0,3.3643564,0,1 @ F,0,0,1,0,2.0492471,0,1 @ F,0,0,1,0,4.5742763,0,1"
       radius="0"
       unit="px"
       method="auto"
       mode="F"
       chamfer_steps="1"
       flexible="false"
       use_knot_distance="true"
       apply_no_radius="true"
       apply_with_radius="true"
       only_selected="false"
       hide_knots="false" />
  </defs>
  <sodipodi:namedview
     id="namedview83"
     pagecolor="#ffffff"
     bordercolor="#000000"
     borderopacity="0.25"
     inkscape:showpageshadow="2"
     inkscape:pageopacity="0.0"
     inkscape:pagecheckerboard="0"
     inkscape:deskcolor="#d1d1d1">
    <inkscape:page
       x="0"
       y="0"
       width="550"
       height="544"
       id="page2"
       margin="0"
       bleed="0" />
  </sodipodi:namedview>
  <path
     d="m 0,0 c 181.5,0 363,0 550,0 0,179.52 0,359.04 0,544 -181.5,0 -363,0 -550,0 C 0,364.48 0,184.96 0,0 Z m 26,27 c 0,162.36 0,324.72 0,492 164.34,0 328.68,0 498,0 0.33,-162.36 0.66,-324.72 1,-492 -164.67,0 -329.34,0 -499,0 z"
     fill="#070a04"
     id="path4" />
  <path
     d="m 27,28 c 158.07,0 316.14,0 479,0 0,6.27 0,12.54 0,19 -11.88,0.33 -23.76,0.66 -36,1 0,6.27 0,12.54 0,19 -133.32,0 -266.64,0 -404,0 0.32849,125.75452 0.32849,125.75452 0.658203,251.50903 0.06348,24.4347 0.06348,24.4347 0.09314,35.90789 0.02056,7.93811 0.04142,15.87622 0.0625,23.81433 0.02442,9.19609 0.04843,18.39218 0.07198,27.58827 0.01201,4.68529 0.02417,9.37059 0.03687,14.05588 0.07037,26.04164 0.08518,52.08284 0.07731,78.1246 -13.2,0 -26.4,0 -40,0 0,-155.1 0,-310.2 0,-470 z"
     fill="#b6bda9"
     id="path6" />
  <path
     d="m 86,88 h 381 c 0,0 -0.0196,-0.525209 0.0142,0.0019 L 467,453 H 86 Z"
     fill="#10130f"
     id="path7"
     sodipodi:nodetypes="cccccc"
     inkscape:label="black_boarder" />
  <path
     d="M 96.473582,97.521438 458.43071,98.473583 457.47856,443.47857 H 96.473582 Z"
     fill="#2b2b13"
     id="path2"
     sodipodi:nodetypes="ccccc"
     inkscape:label="green_background"
     style="display:inline" />
  <path
     d="M 4.8732134,5.628435 C 31.074892,20.453022 107.16222,63.499127 131.09578,77.004673 c 4.02569,2.271668 7.25304,7.850512 7.2023,12.473773 -0.31996,29.157004 -1.35749,126.310684 -1.35749,160.145314 L -3.9287063,326.48417 c 0,0 -109.2047337,-56.95424 -135.6385437,-70.81652 -3.15804,-1.65612 -5.7043,-5.90538 -5.69729,-9.47185 l 0.30671,-156.066533 a 15.181305,15.181305 120.13501 0 1 7.62677,-13.138366 L -13.032602,5.6817552 C -8.0964366,2.8499119 -0.07976467,2.826101 4.8732134,5.628435 Z"
     fill="#0f1311"
     transform="translate(270,111)"
     id="path3"
     sodipodi:nodetypes="ccccccc"
     style="display:inline"
     inkscape:path-effect="#path-effect87"
     inkscape:original-d="m -4.0948838,0.55424932 c 0,0 142.8823738,80.84738768 142.4857838,80.55305368 0,0 -1.45031,128.513517 -1.45031,168.516457 L -3.9287063,326.48417 c 0,0 -141.5650437,-73.83131 -141.3485237,-73.8307 l 0.33664,-171.297034 z"
     inkscape:label="block_black" />
  <path
     d="m 26,27 c 164.67,0 329.34,0 499,0 -0.33,162.36 -0.66,324.72 -1,492 -164.34,0 -328.68,0 -498,0 0,-162.36 0,-324.72 0,-492 z m 1,1 c 0,155.1 0,310.2 0,470 158.07,0 316.14,0 479,0 0,-155.1 0,-310.2 0,-470 -158.07,0 -316.14,0 -479,0 z"
     fill="#585e4c"
     id="path8" />
  <path
     d="m 66,67 c 138.6,0 277.2,0 420,0 0,6.93 0,13.86 0,21 -132,0 -264,0 -400,0 0,120.45 0,240.9 0,365 125.73,0 251.46,0 381,0 0,0.33 0,0.66 0,1 -125.73,0 -251.46,0 -381,0 0,7.26 0,14.52 0,22 -0.33,0 -0.66,0 -1,0 0,-6.93 0,-13.86 0,-21 -6.27,0 -12.54,0 -19,0 0,-128.04 0,-256.08 0,-388 z"
     fill="#626855"
     id="path9" />
  <path
     d="M 3.693396,1.9983931 C 21.615377,11.776324 98.910067,54.282527 116.02549,63.435545 117.66227,64.310868 119,66.506274 119,68.364356 V 200.95075 c 0,1.13177 -0.82558,1.64952 -1.83367,1.13597 C 103.83423,195.29487 21.768748,152.65597 2.4741959,142.62917 0.23256785,141.46426 -1.5576698,138.47256 -1.5372769,135.94703 -1.3855995,117.16277 -0.90473664,45.011436 -0.08771936,4.1984806 -0.04130032,1.8796823 1.6574462,0.88761316 3.693396,1.9983931 Z"
     fill="#a67a2b"
     transform="translate(137,215)"
     id="path10"
     sodipodi:nodetypes="ccccc"
     inkscape:path-effect="#path-effect83"
     inkscape:original-d="M 0,0 C 1.9191455,0.93241504 111.62087,61.310433 119,65 V 203 C 118.9521,203.17126 -1.5845706,140.5198 -1.5845706,140.5198 -1.5276227,140.77883 -1.0033813,45.943564 0,0 Z"
     inkscape:label="brown_surface1" />
  <path
     d="M 11.240712,-1.2730531 11,133 c -40.828904,22.03942 -76.232558,40.30088 -113.79711,61.47089 -1.85896,1.04764 -3.37039,0.16837 -3.37829,-1.96818 l -0.48718,-131.789559 a 4.8069737,4.8069737 120.81505 0 1 2.5385,-4.255833 L 7.7010924,-3.3975437 a 2.4047891,2.4047891 30.972312 0 1 3.5396196,2.1244906 z"
     fill="#6a4715"
     transform="translate(384,221)"
     id="path11"
     inkscape:path-effect="#path-effect86"
     inkscape:original-d="M 11.247924,-5.2959992 11,133 c -42.045518,22.69615 -78.337647,41.38583 -117.1611,63.37128 l -0.51217,-138.549498 z"
     sodipodi:nodetypes="ccccc"
     inkscape:label="brown_surface3" />
  <path
     d="m 27,28 c 158.07,0 316.14,0 479,0 0,6.27 0,12.54 0,19 -70.29,0 -140.58,0 -213,0 0,-5.94 0,-11.88 0,-18 -45.54,0 -91.08,0 -138,0 0,5.94 0,11.88 0,18 -35.64,0 -71.28,0 -108,0 0,148.83 0,297.66 0,451 -6.6,0 -13.2,0 -20,0 0,-155.1 0,-310.2 0,-470 z"
     fill="#e1e8d3"
     id="path12" />
  <path
     d="M 10,9 C 139.09949,8.959621 139.09949,8.959621 188.46982,8.951835 c 12.91066,-0.00204 25.82132,-0.00413 38.73198,-0.00636 1.56175,-2.698e-4 3.12349,-5.382e-4 4.68523,-8.051e-4 24.91976,-0.00427 49.83952,-0.011777 74.75929,-0.020966 25.6007,-0.00942 51.20141,-0.015586 76.80212,-0.017618 3.61171,-2.881e-4 7.22342,-6.138e-4 10.83513,-9.622e-4 0.71087,-6.74e-5 1.42175,-1.349e-4 2.15416,-2.043e-4 11.46651,-0.00118 22.93301,-0.00583 34.39951,-0.011751 11.51351,-0.00587 23.02702,-0.00806 34.54053,-0.00667 6.24403,6.437e-4 12.48804,-3.78e-4 18.73206,-0.0057 5.70615,-0.00483 11.41228,-0.00513 17.11842,-0.00169 2.07403,4.259e-4 4.14806,-8.715e-4 6.22209,-0.00398 2.79978,-0.00396 5.5995,-0.00188 8.39928,0.00183 0.82201,-0.00263 1.64402,-0.00525 2.49093,-0.00796 5.5453,0.016862 5.5453,0.016862 6.65945,1.1310076 0,4.95 0,9.9 0,15 -247.005,0.495 -247.005,0.495 -499,1 -1.566911,3.133823 -1.134597,6.474247 -1.123048,9.914225 -0.0012,0.831299 -0.0023,1.662598 -0.0035,2.519088 -0.0027,2.815838 0.0019,5.63162 0.0063,8.447455 -4.35e-4,2.027003 -0.0013,4.054006 -0.0026,6.081009 -0.0022,5.593661 0.0018,11.187303 0.0068,16.780962 0.0043,6.023198 0.0029,12.046394 0.0021,18.069593 -5.25e-4,10.443444 0.0026,20.886892 0.0082,31.330332 0.0059,10.95615 0.0098,21.9123 0.01085,32.86846 6.9e-5,0.68056 1.37e-4,1.36112 2.08e-4,2.0623 3.38e-4,3.45604 6.4e-4,6.91209 9.27e-4,10.36813 0.0021,24.49572 0.0088,48.99144 0.0183,73.48716 0.0092,23.80111 0.01627,47.60221 0.02051,71.40332 1.98e-4,1.09998 1.98e-4,1.09998 3.99e-4,2.22218 0.0013,7.36411 0.0026,14.72822 0.0038,22.09233 0.0025,15.00229 0.0054,30.00458 0.0084,45.00687 1.37e-4,0.68982 2.74e-4,1.37964 4.16e-4,2.09037 0.0092,46.08541 0.02507,92.17081 0.04193,138.25622 -1.749067,0.19602 -3.499318,0.38147 -5.25,0.5625 -0.974531,0.10441 -1.949062,0.20883 -2.953125,0.31641 C 14,520 14,520 10,519 10,350.7 10,182.4 10,9 Z"
     fill="#10150a"
     id="path13" />
  <path
     d="M 1.4088073,-1.8051922 C 19.699064,8.7209798 99.723321,55.100623 119.26726,66.600311 c 2.39552,1.409526 2.3212,3.632829 -0.14126,4.923654 -17.43196,9.137868 -81.644192,42.786595 -114.7909299,59.999605 -2.6364175,1.36908 -6.984725,1.53124 -9.6116873,0.16538 C -23.005835,122.47078 -85.209463,88.03612 -120.22709,68.737591 c -2.33232,-1.285365 -2.35314,-3.405031 -0.046,-4.735151 18.9021,-10.897521 96.282115,-55.5052444 114.2648234,-65.8123418 2.0458896,-1.1726366 5.37300747,-1.1716651 7.4170739,0.00471 z"
     fill="#d4a742"
     transform="translate(268,130)"
     id="path14"
     sodipodi:nodetypes="ccccc"
     inkscape:path-effect="#path-effect85"
     inkscape:original-d="M -2.2986784,-3.9240896 C -0.17684776,-2.8088562 123.63177,68.931864 123.58455,69.186478 c 0,0 -87.820942,46.052792 -124.02411308,64.814152 C -0.71064968,134.84974 -84.823503,88.232354 -124.4505,66.410891 c 0,0 119.7618188,-69.0515648 122.1518216,-70.3349806 z"
     inkscape:label="brown_surface2" />
  <path
     d="m 26,27 c 164.67,0 329.34,0 499,0 -0.33,162.36 -0.66,324.72 -1,492 -164.34,0 -328.68,0 -498,0 0,-162.36 0,-324.72 0,-492 z m 1,1 c 0,155.1 0,310.2 0,470 6.6,0 13.2,0 20,0 0,6.6 0,13.2 0,20 157.08,0 314.16,0 476,0 0,-59.4 0,-118.8 0,-180 -4.95,0 -9.9,0 -15,0 -0.006,-2.22333 -0.006,-2.22333 -0.0128,-4.49158 -0.10086,-35.25109 -0.2066,-70.50216 -0.3183,-105.75322 -0.0138,-4.3467 -0.0275,-8.69341 -0.0412,-13.04011 -0.003,-0.86529 -0.005,-1.73057 -0.008,-2.62208 -0.044,-13.97749 -0.0846,-27.95498 -0.12407,-41.93248 -0.0406,-14.36143 -0.0848,-28.72285 -0.13223,-43.08426 -0.0291,-8.84887 -0.0555,-17.69774 -0.0783,-26.54663 -0.0159,-6.082854 -0.0354,-12.165689 -0.0575,-18.248523 -0.0126,-3.499988 -0.0238,-6.999964 -0.0308,-10.499968 -0.008,-3.816305 -0.0227,-7.632547 -0.0384,-11.448828 -10e-4,-1.615383 -10e-4,-1.615383 -0.003,-3.2634 C 507.10456,47.33124 506.51395,37.765119 506,28 347.93,28 189.86,28 27,28 Z"
     fill="#606754"
     id="path15" />
  <path
     d="m 468,89 c 0.33,0 0.66,0 1,0 0.33,31.35 0.66,62.7 1,95 4.29,0.99 8.58,1.98 13,3 0,0.33 0,0.66 0,1 -6.435,0.99 -6.435,0.99 -13,2 -0.33,87.12 -0.66,174.24 -1,264 -0.33,0 -0.66,0 -1,0 0,-87.12 0,-174.24 0,-264 -4.455,0.99 -4.455,0.99 -9,2 -1.32,0 -2.64,0 -4,0 0,0.66 0,1.32 0,2 -1.7695,0.50471 -3.54065,1.00361 -5.3125,1.5 -0.98613,0.27844 -1.97227,0.55688 -2.98828,0.84375 C 444,197 444,197 441,197 c 0,0.66 0,1.32 0,2 -0.56848,0.23074 -1.13695,0.46148 -1.72266,0.69922 -10.95301,4.62623 -17.66059,10.40773 -22.90234,21.23828 -0.56977,1.16402 -1.13953,2.32805 -1.72656,3.52734 -2.61267,5.603 -4.91318,10.94289 -6.33594,16.97266 -0.25137,1.05059 -0.50273,2.10117 -0.76172,3.18359 -0.18176,0.78504 -0.36351,1.57008 -0.55078,2.37891 -0.66,0 -1.32,0 -2,0 -0.0735,1.01707 -0.0735,1.01707 -0.14844,2.05469 -0.5172,6.4383 -1.44337,12.64264 -2.85156,18.94531 -0.66,0 -1.32,0 -2,0 -0.25395,-1.13438 -0.50789,-2.26875 -0.76953,-3.4375 -0.34737,-1.5209 -0.69504,-3.04173 -1.04297,-4.5625 -0.16564,-0.74379 -0.33129,-1.48758 -0.50195,-2.25391 -0.87477,-3.79617 -1.8768,-7.42094 -3.2793,-11.05859 C 392.98485,242.96027 392.40962,239.9324 392,236 c -0.66,0 -1.32,0 -2,0 -0.23074,-0.76184 -0.46148,-1.52367 -0.69922,-2.30859 -1.91591,-6.0658 -4.03892,-11.50775 -7.34766,-16.94922 C 381,215 381,215 381,213 c -0.99,-0.33 -1.98,-0.66 -3,-1 -0.72961,-0.93199 -1.45922,-1.86398 -2.21094,-2.82422 -2.90936,-3.64705 -6.18084,-5.19826 -10.41406,-6.98828 -1.0016,-0.44763 -1.0016,-0.44763 -2.02344,-0.9043 C 360.5977,200.06324 357.85834,198.95278 355,198 c 0,-0.66 0,-1.32 0,-2 -0.60328,-0.13277 -1.20656,-0.26555 -1.82813,-0.40234 -0.79921,-0.17661 -1.59843,-0.35321 -2.42187,-0.53516 -0.78891,-0.17402 -1.57781,-0.34805 -2.39063,-0.52734 C 346.23121,194.05244 344.11467,193.53837 342,193 c 0,-0.66 0,-1.32 0,-2 -4.95,-0.99 -9.9,-1.98 -15,-3 -0.33,-0.99 -0.66,-1.98 -1,-3 0.81791,-0.16436 0.81791,-0.16436 1.65234,-0.33203 C 333.26509,183.48785 338.59011,181.88876 344,180 c 2.12325,-0.73426 4.24832,-1.46325 6.375,-2.1875 0.99773,-0.34418 1.99547,-0.68836 3.02344,-1.04297 C 356,176 356,176 359,176 c 0.23203,-0.62004 0.46406,-1.24008 0.70312,-1.87891 1.68089,-2.74915 3.02192,-3.06402 6.04688,-4.05859 6.84969,-2.53033 10.57833,-5.63708 14.25,-12.0625 0.66,0 1.32,0 2,0 0.14437,-0.76313 0.28875,-1.52625 0.4375,-2.3125 C 383,153 383,153 384,150 c 0.66,0 1.32,0 2,0 1.485,-5.445 1.485,-5.445 3,-11 0.66,0 1.32,0 2,0 0.10312,-1.09312 0.20625,-2.18625 0.3125,-3.3125 0.86731,-6.90186 2.81749,-13.58035 5.3125,-20.0625 1.11078,-2.92843 1.89394,-5.54623 2.375,-8.625 0.99,0 1.98,0 3,0 0.50568,2.5615 1.0047,5.124 1.5,7.6875 0.14309,0.72123 0.28617,1.44246 0.43359,2.18555 0.72213,3.76536 1.24891,7.27169 1.06641,11.12695 0.66,0 1.32,0 2,0 0.5056,1.43554 1.00427,2.87352 1.5,4.3125 0.27844,0.80051 0.55687,1.60102 0.84375,2.42578 C 410,137 410,137 410,140 c 0.66,0 1.32,0 2,0 0.21914,0.76184 0.43828,1.52367 0.66406,2.30859 1.94246,6.32484 4.13916,11.5125 8.06641,16.85157 C 422,161 422,161 423,164 c 1.82234,1.12002 1.82234,1.12002 4,2 2.66667,1.33333 5.33333,2.66667 8,4 0,0.66 0,1.32 0,2 0.61746,0.17016 1.23492,0.34031 1.87109,0.51562 5.25829,1.50466 10.18148,3.26586 15.1211,5.61719 1.9872,0.85829 3.89712,1.4034 6.00781,1.86719 0,0.66 0,1.32 0,2 1.63969,0.21656 1.63969,0.21656 3.3125,0.4375 C 465,183 465,183 468,184 c 0,-31.35 0,-62.7 0,-95 z"
     fill="#fbf8f0"
     id="path16"
     style="display:inline"
     inkscape:label="star" />
  <path
     d="m 191,29 c 33.66,0 67.32,0 102,0 0,5.94 0,11.88 0,18 4.32956,-0.251246 4.32956,-0.251246 8.74658,-0.507568 15.58682,-0.770758 31.18407,-0.523453 46.7831,-0.391897 4.28533,0.03489 8.57071,0.06311 12.85609,0.09211 8.07769,0.05563 16.15532,0.117076 24.23295,0.180722 9.21191,0.07229 18.42387,0.13793 27.63583,0.20307 C 432.16976,46.710335 451.08489,46.852629 470,47 c 0,6.6 0,13.2 0,20 -72.93,0 -145.86,0 -221,0 0,-6.6 0,-13.2 0,-20 -19.14,0 -38.28,0 -58,0 0,-5.94 0,-11.88 0,-18 z"
     fill="#bcc4b0"
     id="path17" />
  <path
     d="m 48,197 c 0.33,0 0.66,0 1,0 0,6.6 0,13.2 0,20 5.28,0 10.56,0 16,0 0.33,78.54 0.66,157.08 1,238 0.33,0 0.66,0 1,0 0,14.19 0,28.38 0,43 -6.27,0 -12.54,0 -19,0 0,-99.33 0,-198.66 0,-301 z"
     fill="#afb6a1"
     id="path18" />
  <path
     d="m 154,28 c 116.16,0 232.32,0 352,0 0,6.27 0,12.54 0,19 -70.29,0 -140.58,0 -213,0 0,-5.94 0,-11.88 0,-18 -45.54,0 -91.08,0 -138,0 0,5.94 0,11.88 0,18 -22.44,0 -44.88,0 -68,0 0,-5.94 0,-11.88 0,-18 11.55,0 23.1,0 35,0 0,5.61 0,11.22 0,17 10.56,0 21.12,0 32,0 0,-5.94 0,-11.88 0,-18 z"
     fill="#d4dcc7"
     id="path19" />
  <path
     d="m 505,47 c 0,54.78 0,109.56 0,166 -5.61,0 -11.22,0 -17,0 0,6.93 0,13.86 0,21 4.95,0 9.9,0 15,0 0,-6.27 0,-12.54 0,-19 0.66,0 1.32,0 2,0 0,20.46 0,40.92 0,62 -5.94,0 -11.88,0 -18,0 -0.17682,-13.33322 -0.34337,-26.66653 -0.5,-40 -0.0119,-1.01053 -0.0238,-2.02106 -0.036,-3.06221 -0.39869,-34.22981 -0.55411,-68.45575 -0.52651,-102.68779 10e-4,-1.6038 10e-4,-1.6038 0.003,-3.23999 C 485.9513,115.00665 485.97193,102.00333 486,89 c -5.94,0 -11.88,0 -18,0 0,31.35 0,62.7 0,95 -0.99,-0.33 -1.98,-0.66 -3,-1 0.66,0 1.32,0 2,0 0,-31.35 0,-62.7 0,-95 6.27,0 12.54,0 19,0 0,-6.93 0,-13.86 0,-21 -5.28,0 -10.56,0 -16,0 0,-5.94 0,-11.88 0,-18 -10.56,0 -21.12,0 -32,0 0,-0.33 0,-0.66 0,-1 3.91614,-0.150914 7.83254,-0.292297 11.74927,-0.427246 1.93334,-0.06817 3.86646,-0.142508 5.79956,-0.217285 C 472.04742,46.796194 488.46005,47 505,47 Z"
     fill="#aeb6a1"
     id="path20" />
  <path
     d="M 249.90429,475.28589 486,476 v 22 H 314 v -21 z"
     fill="#939a84"
     id="path21"
     sodipodi:nodetypes="cccccc" />
  <path
     d="m 27,28 c 41.91,0 83.82,0 127,0 0,5.94 0,11.88 0,18 -10.56,0 -21.12,0 -32,0 0,-5.61 0,-11.22 0,-17 -11.55,0 -23.1,0 -35,0 0,5.94 0,11.88 0,18 -13.53,0 -27.06,0 -41,0 0,56.1 0,112.2 0,170 -0.33,0 -0.66,0 -1,0 -0.495,-62.37 -0.495,-62.37 -1,-126 -4.95,0 -9.9,0 -15,0 0.0011,1.263664 0.0022,2.527329 0.0034,3.829286 0.05548,65.535254 0.01429,131.069424 -0.222115,196.604304 -0.0027,0.75997 -0.0055,1.51994 -0.0083,2.30293 -0.06932,19.22417 -0.14298,38.44832 -0.218339,57.67247 -0.04355,11.12189 -0.08585,22.24378 -0.127372,33.36567 -0.003,0.8 -0.006,1.60001 -0.0091,2.42426 -0.015,4.01918 -0.02998,8.03837 -0.04495,12.05755 C 28.251856,431.83766 28.127129,464.41883 28,497 c 5.61,0 11.22,0 17,0 0,-58.08 0,-116.16 0,-176 0.33,0 0.66,0 1,0 0,58.41 0,116.82 0,177 -6.27,0 -12.54,0 -19,0 0,-155.1 0,-310.2 0,-470 z"
     fill="#f1f3eb"
     id="path22" />
  <path
     d="m 469,89 h 17 c 0.79839,56.34424 1.09881,112.68221 1.09766,169.03125 l 3e-5,2.21144 2e-5,2.16931 3e-5,1.8801 c -10e-4,24.06931 -0.0199,48.13859 -0.0352,72.2079 L 487,476 H 86 v -20 h 1 v 19 h 399 l -1,-263 c -7.48757,-0.74931 -7.48757,-0.74931 -15,-1 v 66 h 15 v 22 H 469 V 190 c 3.90433,-1.95216 6.96017,2.25432 11.23804,1.76072 l -2.15235,-1.11645 -2.54712,0.41698 -5.1577,0.4248 C 468.09571,190.9509 470,185 469,184 c -0.0953,-2.95246 -0.12552,-5.88148 -0.11353,-8.83423 l -4.4e-4,-2.80829 c 7e-4,-3.07882 0.008,-6.15758 0.0163,-9.23639 0.002,-2.12849 0.003,-4.25699 0.004,-6.38548 0.004,-5.61423 0.0137,-11.22844 0.0247,-16.84267 0.0102,-5.72407 0.0148,-11.44815 0.0198,-17.17224 C 468.96191,111.48046 468.97899,100.24023 469,89 Z"
     fill="#dee5cf"
     id="path23"
     sodipodi:nodetypes="ccsccccccccccccccccccccccccccccc" />
  <path
     d="m 486,211 0.89088,242.88739 -20.08044,-0.0409 c -0.0716,-31.68097 -0.0216,-102.01224 0.33313,-154.72752 L 485,299 v -22 h -15 v -66 c 5,-1 5,-1 16,0 z"
     fill="#e2e9d4"
     id="path24"
     sodipodi:nodetypes="ccccccccc" />
  <path
     d="m 26,27 c 164.67,0 329.34,0 499,0 -0.33,162.36 -0.66,324.72 -1,492 -164.34,0 -328.68,0 -498,0 0,-162.36 0,-324.72 0,-492 z m 1,1 c 0,155.1 0,310.2 0,470 6.6,0 13.2,0 20,0 0,6.6 0,13.2 0,20 157.08,0 314.16,0 476,0 0,-155.43 0,-310.86 0,-471 -5.61,0 -11.22,0 -17,0 0,-6.27 0,-12.54 0,-19 -158.07,0 -316.14,0 -479,0 z"
     fill="#757a6a"
     id="path25" />
  <path
     d="m 154,28 c 116.16,0 232.32,0 352,0 0,6.27 0,12.54 0,19 -22.44,0 -44.88,0 -68,0 0,-5.94 0,-11.88 0,-18 -93.39,0 -186.78,0 -283,0 0,5.94 0,11.88 0,18 -22.44,0 -44.88,0 -68,0 0,-5.94 0,-11.88 0,-18 11.55,0 23.1,0 35,0 0,5.61 0,11.22 0,17 10.56,0 21.12,0 32,0 0,-5.94 0,-11.88 0,-18 z"
     fill="#dde2d5"
     id="path27" />
  <path
     d="m 173,29 c 5.94,0 11.88,0 18,0 0,5.94 0,11.88 0,18 19.14,0 38.28,0 58,0 0,6.6 0,13.2 0,20 -9.8919,0.02255 -19.78378,0.04092 -29.6757,0.05181 -4.59273,0.0052 -9.18544,0.01233 -13.77816,0.02363 -4.42848,0.01083 -8.85694,0.01684 -13.28543,0.01944 -1.69337,0.0019 -3.38673,0.0055 -5.08009,0.01085 -2.36353,0.0072 -4.72699,0.0083 -7.09053,0.0078 -0.70706,0.0036 -1.41412,0.0072 -2.14261,0.01089 C 173.11405,67.114052 173.11405,67.114052 172,66 c -0.10352,-2.822521 -0.1404,-5.614841 -0.125,-8.4375 0.002,-0.841516 0.004,-1.683032 0.006,-2.550049 C 171.93916,46.317177 172.44468,37.67685 173,29 Z"
     fill="#adb5a0"
     id="path28" />
  <path
     d="M 236,476 314.23804,475.80982 314,498 h -78 z"
     fill="#afb6a0"
     id="path29"
     sodipodi:nodetypes="ccccc" />
  <path
     d="m 486,185 h 1 V 476 H 86 v -20 h 1 v 19 h 399 l -1,-263 c -7.48757,-0.74931 -7.48757,-0.74931 -15,-1 v 66 h 15 v 22 h -16 c -0.0231,-14.19456 -0.0409,-28.38912 -0.0518,-42.58369 -0.005,-6.59036 -0.0123,-13.1807 -0.0236,-19.77105 -0.0108,-6.35418 -0.0168,-12.70835 -0.0194,-19.06254 -0.002,-2.43022 -0.005,-4.86043 -0.0109,-7.29063 -0.007,-3.39092 -0.008,-6.78178 -0.008,-10.17271 l -0.0109,-3.07768 0.004,-2.78338 -0.003,-2.43298 C 469,190 468.28589,188.33375 469.28589,187.33375 c 2.69236,-0.23679 6.07909,1.24427 8.77661,1.10375 l 2.29883,-0.13086 C 482.24065,188.20026 484.1203,188.0996 486,188 Z"
     fill="#ccd4bd"
     id="path30"
     sodipodi:nodetypes="cccccccccccccccsccccccccccc" />
  <path
     d="m 47,47 c 0.33,0 0.66,0 1,0 0,43.56 0,87.12 0,132 5.61,0 11.22,0 17,0 0,-36.96 0,-73.92 0,-112 0.33,0 0.66,0 1,0 0,134.64 0,269.28 0,408 -0.33,0 -0.66,0 -1,0 0,-85.14 0,-170.28 0,-258 -5.28,0 -10.56,0 -16,0 -0.33,92.73 -0.66,185.46 -1,281 -0.33,0 -0.66,0 -1,0 0,-148.83 0,-297.66 0,-451 z"
     fill="#c1c9b4"
     id="path31" />
  <path
     d="m 105.92574,453.9901 c -0.0274,0.0112 381.13861,-0.18812 381.13861,-0.18812 l -0.01,22.20792 -381.11623,-0.96782 z"
     fill="#ecefe3"
     id="path32"
     sodipodi:nodetypes="ccccc" />
  <path
     d="m 142,476 h 94 v 22 L 180.52393,498.23804 180,475.80982 Z"
     fill="#979f89"
     id="path33"
     sodipodi:nodetypes="cccccc" />
  <path
     d="m 67,455 c 5.94,0 11.88,0 18,0 0,6.93 0,13.86 0,21 12.54,0 25.08,0 38,0 0,0.33 0,0.66 0,1 -5.61,0 -11.22,0 -17,0 -0.33,6.93 -0.66,13.86 -1,21 -12.54,0 -25.08,0 -38,0 0,-14.19 0,-28.38 0,-43 z"
     fill="#9da58f"
     id="path34" />
  <path
     d="m 66,67 c 138.6,0 277.2,0 420,0 0,6.93 0,13.86 0,21 -6.27,0 -12.54,0 -19,0 0,-6.6 0,-13.2 0,-20 -132,0 -264,0 -400,0 0,127.38 0,254.76 0,386 6.27,0 12.54,0 19,0 0,7.26 0,14.52 0,22 -0.33,0 -0.66,0 -1,0 0,-6.93 0,-13.86 0,-21 -6.27,0 -12.54,0 -19,0 0,-128.04 0,-256.08 0,-388 z"
     fill="#787f6a"
     id="path35" />
  <path
     d="m 505,47 h 1 v 451 c -4.53979,0 -20.05198,0.0446 -20.05198,0.0446 L 485.9901,276.83168 504.91584,277 505,215 h -2 v 19 h -15 v -21 h 17 z"
     fill="#8b937d"
     id="path36"
     sodipodi:nodetypes="ccccccccccccc" />
  <path
     d="m 155,29 c 5.94,0 11.88,0 18,0 0,12.54 0,25.08 0,38 -12.21,0 -24.42,0 -37,0 0,-6.6 0,-13.2 0,-20 6.27,0 12.54,0 19,0 0,-5.94 0,-11.88 0,-18 z"
     fill="#bbc3ae"
     id="path37" />
  <path
     d="m 27,27 c 164.34,0 328.68,0 498,0 0,6.6 0,13.2 0,20 -6.27,0 -12.54,0 -19,0 0,-6.27 0,-12.54 0,-19 -158.07,0 -316.14,0 -479,0 0,-0.33 0,-0.66 0,-1 z"
     fill="#acada5"
     id="path38" />
  <path
     d="m 487,213 c 0.33,0 0.66,0 1,0 0,6.93 0,13.86 0,21 4.95,0 9.9,0 15,0 0,-6.27 0,-12.54 0,-19 0.66,0 1.32,0 2,0 0,20.46 0,40.92 0,62 -5.94,0 -11.88,0 -18,0 0,-21.12 0,-42.24 0,-64 z"
     fill="#aab29c"
     id="path39" />
  <path
     d="m 351,477 h 39 v 21 h -39 c 0,0 -0.12988,-20.91272 0,-21 z"
     fill="#a4ab95"
     id="path40"
     sodipodi:nodetypes="ccccc" />
  <path
     d="m 429,477 c 12.54,0 25.08,0 38,0 0,6.93 0,13.86 0,21 -12.54,0 -25.08,0 -38,0 0,-6.93 0,-13.86 0,-21 z"
     fill="#aab29c"
     id="path41" />
  <path
     d="m 104.90594,476.07673 82.84355,-0.18873 0.24855,22.40955 L 105,498 c 0,0 -0.16832,-21.80445 -0.0941,-21.92327 z"
     fill="#afb7a1"
     id="path42"
     sodipodi:nodetypes="ccccc" />
  <path
     d="m 48,197 c 0.33,0 0.66,0 1,0 0,91.74 0,183.48 0,278 5.61,0 11.22,0 17,0 0,-6.6 0,-13.2 0,-20 0.33,0 0.66,0 1,0 0,14.19 0,28.38 0,43 -6.27,0 -12.54,0 -19,0 0,-99.33 0,-198.66 0,-301 z"
     fill="#a7af9a"
     id="path43" />
  <path
     d="m 154,28 c 12.21,0 24.42,0 37,0 0,0.33 0,0.66 0,1 -11.88,0 -23.76,0 -36,0 0,5.94 0,11.88 0,18 -22.44,0 -44.88,0 -68,0 0,-5.94 0,-11.88 0,-18 11.55,0 23.1,0 35,0 0,5.61 0,11.22 0,17 10.56,0 21.12,0 32,0 0,-5.94 0,-11.88 0,-18 z"
     fill="#dae2cb"
     id="path45" />
  <path
     d="m 105,47 c 10.23,0 20.46,0 31,0 0,6.6 0,13.2 0,20 -23.1,0 -46.2,0 -70,0 0,-0.33 0,-0.66 0,-1 12.87,-0.33 25.74,-0.66 39,-1 0,-5.94 0,-11.88 0,-18 z"
     fill="#c3cab7"
     id="path46" />
  <path
     d="m 191,28 c 102.96,0 205.92,0 312,0 0,0.33 0,0.66 0,1 -16.17,0 -32.34,0 -49,0 0,5.28 0,10.56 0,16 10.56,0 21.12,0 32,0 0,0.33 0,0.66 0,1 -4.26421,0.145865 -8.52853,0.288065 -12.79297,0.427246 -1.44274,0.04756 -2.88545,0.09602 -4.32812,0.145508 C 458.57938,46.925182 448.30603,47.046424 438,47 c 0,-5.94 0,-11.88 0,-18 -81.51,0 -163.02,0 -247,0 0,-0.33 0,-0.66 0,-1 z"
     fill="#e9ebe2"
     id="path47" />
  <path
     d="m 87,28 c 22.11,0 44.22,0 67,0 0,5.94 0,11.88 0,18 -10.56,0 -21.12,0 -32,0 0,-5.61 0,-11.22 0,-17 -11.55,0 -23.1,0 -35,0 0,-0.33 0,-0.66 0,-1 z"
     fill="#e9ede2"
     id="path48" />
  <path
     d="m 469,210 c 1.98,0 3.96,0 6,0 0,0.33 0,0.66 0,1 -1.65,0 -3.3,0 -5,0 0,21.78 0,43.56 0,66 4.95,0 9.9,0 15,0 0,7.26 0,14.52 0,22 -5.28,0 -10.56,0 -16,0 0,-29.37 0,-58.74 0,-89 z"
     fill="#d2dac3"
     id="path49" />
  <path
     d="m 469,90 c 5.28,0 10.56,0 16,0 0,7.26 0,14.52 0,22 -4.95,0 -9.9,0 -15,0 0,23.76 0,47.52 0,72 -0.33,0 -0.66,0 -1,0 0,-31.02 0,-62.04 0,-94 z"
     fill="#d5ddc6"
     id="path50" />
  <path
     d="m 488,89 c 0.33,0 0.66,0 1,0 0.33,14.52 0.66,29.04 1,44 6.435,-0.495 6.435,-0.495 13,-1 0.66,0.33 1.32,0.66 2,1 0,6.27 0,12.54 0,19 -5.61896,0.93649 -10.3501,1.07635 -16,1 0,5.28 0,10.56 0,16 -0.33,0 -0.66,0 -1,0 -0.65553,-8.38142 -1.08704,-16.71769 -1.0625,-25.125 10e-4,-0.85278 0.003,-1.70555 0.004,-2.58417 0.0376,-10.51645 0.29853,-21.02799 0.55847,-31.54083 0.0484,-2.02864 0.0966,-4.05729 0.14453,-6.08594 C 487.76055,98.775979 487.87944,93.887973 488,89 Z"
     fill="#a5ad97"
     id="path51" />
  <path
     d="m 506,27 c 6.27,0 12.54,0 19,0 0,6.6 0,13.2 0,20 -6.27,0 -12.54,0 -19,0 0,-6.6 0,-13.2 0,-20 z"
     fill="#989f89"
     id="path52" />
  <path
     d="m 199,477 c 5.94,0 11.88,0 18,0 0,6.93 0,13.86 0,21 -5.94,0 -11.88,0 -18,0 0,-6.93 0,-13.86 0,-21 z"
     fill="#abb39d"
     id="path53" />
  <path
     d="m 470,430 c 5.28,0 10.56,0 16,0 0,7.92 0,15.84 0,24 -5.28,-0.33 -10.56,-0.66 -16,-1 0,-7.59 0,-15.18 0,-23 z"
     fill="#eaefdd"
     id="path54" />
  <path
     d="M 85.957921,454.03218 106,453.9802 V 475 H 86.032178 Z"
     fill="#e3e9d6"
     id="path55"
     sodipodi:nodetypes="ccccc" />
  <path
     d="m 214,47 c 5.94,0 11.88,0 18,0 0,6.27 0,12.54 0,19 -5.94,0 -11.88,0 -18,0 0,-6.27 0,-12.54 0,-19 z"
     fill="#979f89"
     id="path56" />
  <path
     d="m 468,67 c 5.94,0 11.88,0 18,0 -0.33,6.6 -0.66,13.2 -1,20 -5.61,0 -11.22,0 -17,0 0,-6.6 0,-13.2 0,-20 z"
     fill="#8c937e"
     id="path57" />
  <path
     d="m 49,454 c 5.28,0 10.56,0 16,0 0,6.93 0,13.86 0,21 -5.28,0 -10.56,0 -16,0 0,-6.93 0,-13.86 0,-21 z"
     fill="#b9c0ac"
     id="path58" />
  <path
     d="m 359,29 c 25.74,0 51.48,0 78,0 0,0.33 0,0.66 0,1 -20.79,0 -41.58,0 -63,0 0,5.61 0,11.22 0,17 -4.95,0 -9.9,0 -15,0 0,-5.94 0,-11.88 0,-18 z"
     fill="#cbd3bd"
     id="path59" />
  <path
     d="m 136,47 c 5.61,0 11.22,0 17,0 0,6.27 0,12.54 0,19 -5.61,0 -11.22,0 -17,0 0,-6.27 0,-12.54 0,-19 z"
     fill="#a2aa94"
     id="path60" />
  <path
     d="m 232,47 c 5.61,0 11.22,0 17,0 0,6.27 0,12.54 0,19 -5.61,0 -11.22,0 -17,0 0,-6.27 0,-12.54 0,-19 z"
     fill="#aab29d"
     id="path61" />
  <path
     d="m 488,213 c 5.61,0 11.22,0 17,0 0,0.66 0,1.32 0,2 -0.66,0 -1.32,0 -2,0 0,6.27 0,12.54 0,19 -4.95,0 -9.9,0 -15,0 0,-6.93 0,-13.86 0,-21 z"
     fill="#959d86"
     id="path62" />
  <path
     d="m 53.378906,196.90234 c 1.394569,0.006 2.78911,0.0187 4.183594,0.0352 2.454375,0.0206 4.90875,0.0412 7.4375,0.0625 0,6.6 0,13.2 0,20 -5.28,0 -10.56,0 -16,0 -0.02684,-3.14589 -0.04676,-6.29156 -0.0625,-9.4375 -0.0084,-0.89784 -0.01676,-1.79567 -0.02539,-2.72071 -0.0032,-0.854 -0.0065,-1.708 -0.0098,-2.58789 -0.0079,-1.18614 -0.0079,-1.18614 -0.01587,-2.39624 0.204458,-3.34556 1.052265,-2.85589 4.492436,-2.95532 z"
     fill="#b6bda9"
     id="path63" />
  <path
     d="m 294,29 c 5.94,0 11.88,0 18,0 0,5.61 0,11.22 0,17 -5.94,0 -11.88,0 -18,0 0,-5.61 0,-11.22 0,-17 z"
     fill="#dde3d2"
     id="path64" />
</svg>
