<?xml version="1.0" encoding="UTF-8"?><svg id="Layer_1" xmlns="http://www.w3.org/2000/svg" viewBox="0 0 333.89 372.84"><path d="M259.54,74.24c60.71-7.41,97.56,62.06,56.4,108.9l-134.43,133.81c-1.09,2.11-1.65,4.84-.02,6.85l29.3,29.7c4.78,12.5-6.05,23.09-18.13,17.13-3.77-1.86-27.35-25.59-30.92-30.04-10.35-12.93-9.61-28.04.15-41.01l137.46-136.99c28.63-38.99-22.29-85.08-58.34-52.38l-111.97,112.03c-12.32,8.01-25.72-7.84-17.03-19.03l114.48-114.74c26.92-38.61-21.05-82.72-57.61-51.89L21.92,184.07c-14.63,10.1-29.43-8.34-16.4-20.35L157.63,12.82c34.13-25.47,84.61-9.54,98.69,30.14.55,1.55,3.23,10.03,3.23,10.77v20.5Z" style="fill:#787878; stroke:#fff; stroke-miterlimit:10;"/><path d="M201.96,76.65c-30.95,33.67-65.99,63.87-97.47,97.03-7.28,7.67-14.8,14.86-17.48,25.52-9.84,39.17,37.77,64.65,66.06,36.06l109.1-108.9c11.89-5.53,24.17,6.44,17.22,18.22l-117.33,116.67c-64.19,43.43-136.7-37.41-84.57-96.54,33.22-37.68,74.98-71.65,109.13-108.89,11-10.01,26.67,1.96,20.3,15.31-1.1,2.31-3.41,3.81-4.98,5.52Z" style="fill:#787878; stroke:#fff; stroke-miterlimit:10;"/></svg>