<?xml version="1.0" encoding="UTF-8" standalone="no"?>
<!DOCTYPE svg PUBLIC "-//W3C//DTD SVG 1.1//EN" "http://www.w3.org/Graphics/SVG/1.1/DTD/svg11.dtd">
<svg width="100%" height="100%" viewBox="0 0 24 24" version="1.1" xmlns="http://www.w3.org/2000/svg" xmlns:xlink="http://www.w3.org/1999/xlink" xml:space="preserve" xmlns:serif="http://www.serif.com/" style="fill-rule:evenodd;clip-rule:evenodd;stroke-linecap:round;stroke-linejoin:round;">
    <g transform="matrix(1.31931,0,0,1.31931,-5.80812,-3.426801)">
        <g id="Area">
            <path d="M11.2,10.2L17.1,7.1L17.1,15.7L11.2,18.7L11.2,10.2Z" style="fill:rgb(140,198,63);fill-rule:nonzero;"/>
        </g>
    </g>
    <g id="Cube" transform="matrix(0.998344,0,0,0.998344,-1.281861,-0.020499)">
        <g transform="matrix(1.321499,0,0,1.321499,-4.533768,-3.411953)">
            <path d="M11.2,4.1L17.1,7.1L17.1,15.7L11.2,18.7" style="fill:none;fill-rule:nonzero;stroke:rgb(35,31,32);stroke-width:1.6px;"/>
        </g>
        <g transform="matrix(1.321499,0,0,1.321499,-4.533768,-3.411953)">
            <path d="M5.3,7.1L11.2,10.2" style="fill:none;fill-rule:nonzero;stroke:rgb(35,31,32);stroke-width:1.6px;stroke-dasharray:2.2,2.2;"/>
        </g>
        <g transform="matrix(1.321499,0,0,1.321499,-4.533768,-3.411953)">
            <path d="M5.3,7.1L5.3,15.7L11.2,18.7L11.2,10.2" style="fill:none;fill-rule:nonzero;stroke:rgb(35,31,32);stroke-width:1.6px;stroke-dasharray:2.2,2.2;"/>
        </g>
        <g transform="matrix(1.209419,-0.590172,0.590172,1.209419,-22.350341,-1.008748)">
            <path d="M14.424,12.643L20.8,12.643" style="fill:none;fill-rule:nonzero;stroke:rgb(35,31,32);stroke-width:1.6px;"/>
        </g>
        <g transform="matrix(1.209419,-0.590172,0.590172,1.209419,-14.868976,3.021617)">
            <path d="M14.424,12.643L20.8,12.643" style="fill:none;fill-rule:nonzero;stroke:rgb(35,31,32);stroke-width:1.6px;"/>
        </g>
    </g>
    <g id="Arrow" transform="matrix(0.998344,0,0,0.998344,-0.281861,-0.020499)">
        <g transform="matrix(1.321499,0,0,1.321499,-4.533768,-3.411953)">
            <path d="M14.424,12.643L20.8,12.643" style="fill:none;fill-rule:nonzero;stroke:rgb(0,101,46);stroke-width:1.6px;"/>
        </g>
        <g transform="matrix(1.321499,0,0,1.321499,-4.533768,-3.411953)">
            <path d="M18.4,9.9L20.8,12.643L18.629,15.062" style="fill:none;fill-rule:nonzero;stroke:rgb(0,101,46);stroke-width:1.6px;"/>
        </g>
    </g>
</svg>
